HIERARCHY
ROOT Hips
{
	OFFSET -0.179506 -22.333345 2.821913
	CHANNELS 6 Xposition Yposition Zposition Zrotation Yrotation Xrotation 
	JOINT LeftUpLeg
	{
		OFFSET 6.951974 -9.140623 -0.681533
		CHANNELS 3 Zrotation Yrotation Xrotation
		JOINT LeftLeg
		{
			OFFSET 3.427654 -37.519855 -0.449580
			CHANNELS 3 Zrotation Yrotation Xrotation
			JOINT LeftFoot
			{
				OFFSET -1.359570 -39.796059 -4.369333
				CHANNELS 3 Zrotation Yrotation Xrotation
				JOINT LeftToe
				{
					OFFSET 2.635814 -5.579078 11.928840
					CHANNELS 3 Zrotation Yrotation Xrotation
					End Site
					{
						OFFSET 0.000000 0.000000 0.000000
					}
				}
			}
		}
	}
	JOINT RightUpLeg
	{
		OFFSET -6.767048 -9.052170 -0.431982
		CHANNELS 3 Zrotation Yrotation Xrotation
		JOINT RightLeg
		{
			OFFSET -3.829005 -38.256897 -0.885003
			CHANNELS 3 Zrotation Yrotation Xrotation
			JOINT RightFoot
			{
				OFFSET 1.577377 -39.841461 -4.231180
				CHANNELS 3 Zrotation Yrotation Xrotation
				JOINT RightToe
				{
					OFFSET -2.537174 -4.814398 12.334795
					CHANNELS 3 Zrotation Yrotation Xrotation
					End Site
					{
						OFFSET 0.000000 0.000000 0.000000
					}
				}
			}
		}
	}
	JOINT Spine
	{
		OFFSET -0.253288 10.896323 -2.669631
		CHANNELS 3 Zrotation Yrotation Xrotation
		JOINT Spine1
		{
			OFFSET 0.548704 13.518043 0.109247
			CHANNELS 3 Zrotation Yrotation Xrotation
			JOINT Spine2
			{
				OFFSET 0.145701 5.292222 2.542457
				CHANNELS 3 Zrotation Yrotation Xrotation
				JOINT Neck
				{
					OFFSET -0.277840 21.387037 -4.285703
					CHANNELS 3 Zrotation Yrotation Xrotation
					JOINT Head
					{
						OFFSET 0.515184 6.496960 5.134897
						CHANNELS 3 Zrotation Yrotation Xrotation
						End Site
						{
							OFFSET 0.000000 0.000000 0.000000
						}
					}
				}
				JOINT LeftShoulder
				{
					OFFSET 7.884473 12.174932 -3.408961
					CHANNELS 3 Zrotation Yrotation Xrotation
					JOINT LeftArm
					{
						OFFSET 9.097692 3.046888 -0.886815
						CHANNELS 3 Zrotation Yrotation Xrotation
						JOINT LeftForeArm
						{
							OFFSET 25.961220 -1.277207 -2.745643
							CHANNELS 3 Zrotation Yrotation Xrotation
							JOINT LeftHand
							{
								OFFSET 24.923361 0.898606 -0.117091
								CHANNELS 3 Zrotation Yrotation Xrotation
								End Site
								{
									OFFSET 0.000000 0.000000 0.000000
								}
							}
						}
					}
				}
				JOINT RightShoulder
				{
					OFFSET -8.175920 11.883285 -3.861528
					CHANNELS 3 Zrotation Yrotation Xrotation
					JOINT RightArm
					{
						OFFSET -9.601238 3.255117 -0.914307
						CHANNELS 3 Zrotation Yrotation Xrotation
						JOINT RightForeArm
						{
							OFFSET -25.374195 -1.332924 -2.140099
							CHANNELS 3 Zrotation Yrotation Xrotation
							JOINT RightHand
							{
								OFFSET -25.529810 0.777228 -0.555919
								CHANNELS 3 Zrotation Yrotation Xrotation
								End Site
								{
									OFFSET 0.000000 0.000000 0.000000
								}
							}
						}
					}
				}
			}
		}
	}
}
MOTION
Frames: 7
Frame Time: 0.033333
-71.269974 -42.747540 96.575630 -41.075298 3.858867 85.456729 -5.466068 -2.710333 7.148495 1.949151 -8.825076 4.213722 -3.586271 3.208904 -7.307352 nan nan nan 0.925683 4.259637 -18.238270 -2.347453 -6.581727 27.550680 8.689046 -0.234778 -1.181638 nan nan nan -2.263418 -3.238536 6.453316 4.024162 -1.926869 2.286416 3.688636 -4.009664 1.934161 7.507008 0.028286 -0.173398 3.347128 -1.122602 1.582720 -16.216224 2.164820 1.730887 -70.936944 -18.086912 18.341124 35.208956 -60.983203 -45.749612 9.261882 -17.981581 -53.515449 15.483247 0.871246 -3.456263 59.138177 23.305370 19.985374 -16.240363 58.035146 -29.784222 -0.129534 12.575486 -49.442964 
-71.889008 -43.244843 96.559563 -40.742351 4.121687 85.358664 -4.975172 -2.228089 8.113698 2.008367 -9.186127 3.625446 -3.808969 2.918472 -7.694494 nan nan nan 1.363880 4.467092 -18.440870 -2.272373 -6.550308 25.222720 9.122118 -0.367086 -0.150830 nan nan nan -2.464796 -3.410492 6.799548 4.168985 -1.906928 2.335537 3.925975 -4.227498 1.920218 7.738427 0.075433 -0.458834 3.426983 -0.993398 1.650975 -16.265282 2.143922 1.730940 -70.867194 -18.342178 18.449039 35.127103 -61.036062 -45.552189 9.452947 -17.978275 -53.507210 15.600039 0.749836 -3.636174 58.876207 23.358873 20.097977 -16.411298 58.100469 -29.673682 0.344010 12.604253 -49.315464 
-72.567558 -43.639435 96.609184 -40.865630 4.679202 84.628581 -3.792581 -0.690531 9.692986 1.855887 -9.898076 3.068752 -4.305954 2.112102 -8.035188 nan nan nan 2.642379 5.054973 -17.814356 -2.453662 -5.919698 22.580103 9.284301 -0.700208 0.727867 nan nan nan -2.590803 -3.642828 8.226713 4.331468 -1.554476 2.192395 4.300635 -4.243032 1.664530 7.904721 -0.134261 -0.700824 3.613419 -0.599103 1.694487 -16.433775 1.930805 1.605501 -70.616153 -18.447555 18.349926 34.811502 -60.937307 -45.116623 10.867751 -17.477832 -52.682654 15.560617 0.977489 -3.810134 59.043685 23.080727 20.146761 -17.207120 58.246300 -30.947413 -0.453571 12.406212 -49.274946 
-73.173912 -44.103718 96.534012 -40.663190 4.843836 84.709333 -3.377294 -0.074900 10.324668 1.920131 -10.479996 2.708270 -4.741465 1.644163 -8.115030 nan nan nan 3.181551 5.493920 -18.156403 -2.552990 -5.448344 20.269839 9.360519 -0.765788 1.141713 nan nan nan -2.814547 -3.796309 8.574222 4.378076 -1.444062 1.933058 4.478061 -4.389137 1.630994 8.165246 -0.321613 -0.753188 3.807451 -0.574713 1.721817 -16.491350 1.932036 1.701495 -70.262434 -18.783240 18.528679 34.065413 -60.950965 -44.304034 13.329698 -16.792861 -52.011658 15.742135 0.919791 -3.845857 58.959697 23.128117 20.281114 -16.278338 58.371704 -30.979426 -3.801347 12.611874 -50.877644 
-73.756966 -44.760170 96.425949 -39.771105 4.928883 85.198145 -3.265684 -0.342827 10.571855 2.165957 -10.638058 2.343836 -5.307596 1.377787 -7.948439 nan nan nan 3.152951 5.301566 -18.706527 -2.394406 -5.440350 17.901549 9.584575 -0.554508 1.600060 nan nan nan -2.836452 -3.935095 7.886434 4.444669 -1.909973 2.297952 4.497504 -4.713476 1.544913 8.280643 -0.376549 -0.568168 4.037812 -0.655702 1.421839 -16.532306 1.903050 1.883264 -70.085637 -19.013831 18.686911 34.010235 -61.146839 -44.313422 12.874246 -16.859138 -52.175654 15.820691 0.633738 -3.735194 58.865039 23.169255 20.387465 -16.665520 58.596847 -31.173779 -3.559613 12.088799 -51.240762 
-74.360077 -45.300674 96.354988 -39.473942 5.078707 85.034356 -2.874299 -0.071697 11.537641 2.199427 -10.891303 1.917753 -5.673390 1.131155 -8.488852 nan nan nan 3.555463 5.371667 -18.698957 -2.398303 -5.138779 15.671198 9.878050 -0.374686 1.956592 nan nan nan -3.028342 -3.996223 8.352405 4.479233 -2.009931 2.440772 4.725206 -4.849539 1.306736 8.365043 -0.338920 -0.679132 4.292291 -0.613520 1.237565 -16.472779 1.772260 1.809040 -70.126260 -19.082219 18.670876 34.101132 -61.117651 -44.256463 12.445089 -17.039220 -52.064514 15.747239 0.659529 -3.829699 58.961639 22.962002 20.374339 -17.486390 58.710289 -31.640219 -2.817669 11.669962 -50.760596 
-74.922729 -45.885887 96.240540 -39.153779 5.083035 85.007889 -2.892712 -0.383439 12.461310 2.216099 -11.446220 1.534879 -5.277312 1.408474 -9.570283 nan nan nan 3.677856 5.358888 -18.788164 -2.170677 -4.755819 13.384334 9.879215 -0.430046 2.040890 nan nan nan -3.207771 -4.022128 8.512948 4.459429 -2.141508 2.569140 4.873031 -5.003849 1.255991 8.462221 -0.362518 -0.846676 4.491148 -0.505011 1.205086 -16.486414 1.618850 1.843555 -70.146182 -19.303536 18.768208 34.105242 -61.180630 -44.383151 12.776953 -16.880873 -52.332679 15.711260 0.674584 -3.865090 59.005634 22.881952 20.421309 -18.057637 58.764166 -32.115255 -3.109531 11.695602 -50.735397 
